<?xml version="1.0" standalone="no"?>
<!DOCTYPE svg PUBLIC "-//W3C//DTD SVG 20010904//EN"
 "http://www.w3.org/TR/2001/REC-SVG-20010904/DTD/svg10.dtd">
<svg version="1.0" xmlns="http://www.w3.org/2000/svg"
 width="700.000000pt" height="700.000000pt" viewBox="0 0 700.000000 700.000000"
 preserveAspectRatio="xMidYMid meet">
<metadata>
Created by potrace 1.11, written by Peter Selinger 2001-2013
</metadata>
<g transform="translate(0.000000,700.000000) scale(0.100000,-0.100000)"
fill="#000000" stroke="none">
<path d="M5565 5729 c-273 -41 -680 -226 -1095 -497 -295 -192 -707 -522 -836
-668 -166 -188 -324 -432 -509 -784 l-76 -145 7 70 c3 39 10 90 14 115 13 66
-23 111 -66 82 -34 -22 -187 -286 -251 -432 l-33 -75 0 73 c0 59 -4 76 -20 92
-24 24 -32 25 -58 3 -19 -18 -160 -305 -238 -486 -38 -89 -42 -96 -49 -70 -9
38 -23 53 -50 53 -31 0 -38 -11 -78 -125 -118 -338 -265 -630 -395 -785 -25
-30 -105 -122 -178 -205 -121 -139 -419 -509 -480 -597 -26 -36 -26 -39 -9
-64 23 -35 37 -31 225 56 579 269 1007 399 1315 400 166 0 289 -40 319 -105 9
-18 25 -71 36 -119 28 -123 56 -180 106 -225 61 -53 124 -71 255 -71 134 0
288 20 512 66 214 44 676 161 694 176 19 16 16 55 -7 71 -17 12 -51 6 -287
-54 -465 -117 -709 -162 -903 -163 -192 -1 -228 27 -274 214 -47 186 -83 231
-221 277 -71 23 -96 26 -225 27 -160 0 -225 -9 -438 -60 -155 -38 -337 -98
-526 -175 l-119 -49 204 208 c112 114 213 210 224 213 11 4 67 12 125 19 203
23 374 125 316 189 -16 17 -11 21 97 74 116 58 280 161 312 197 15 17 16 24 7
45 -10 22 -17 25 -69 25 l-58 0 30 24 c17 13 212 138 435 278 222 139 415 262
429 274 19 16 23 26 17 47 -9 37 -33 40 -125 17 -45 -12 -86 -20 -92 -18 -5 2
72 62 173 133 249 177 639 470 800 602 157 128 550 515 705 695 429 496 689
955 622 1101 -23 51 -105 73 -214 56z m-1091 -1071 c-67 -69 -817 -857 -1639
-1723 -755 -796 -1290 -1340 -1370 -1395 l-50 -35 65 84 c127 165 270 321 745
816 132 137 368 385 525 550 726 766 1120 1168 1435 1461 138 129 347 314 355
314 2 0 -27 -33 -66 -72z"/>
</g>
</svg>
