<?xml version="1.0" encoding="UTF-8" standalone="no"?>
<svg
   xmlns:dc="http://purl.org/dc/elements/1.1/"
   xmlns:cc="http://creativecommons.org/ns#"
   xmlns:rdf="http://www.w3.org/1999/02/22-rdf-syntax-ns#"
   xmlns:svg="http://www.w3.org/2000/svg"
   xmlns="http://www.w3.org/2000/svg"
   xmlns:sodipodi="http://sodipodi.sourceforge.net/DTD/sodipodi-0.dtd"
   xmlns:inkscape="http://www.inkscape.org/namespaces/inkscape"
   viewBox="0 0 610.92999 1080"
   version="1.1"
   id="svg4650"
   sodipodi:docname="icon_text.svg"
   width="610.92999"
   height="1080"
   inkscape:version="0.92.4 (unknown)"
   inkscape:export-filename="/home/friedger/_repos/github/openintents/app-center/src/images/icon.png"
   inkscape:export-xdpi="11.31"
   inkscape:export-ydpi="11.31">
  <metadata
     id="metadata4656">
    <rdf:RDF>
      <cc:Work
         rdf:about="">
        <dc:format>image/svg+xml</dc:format>
        <dc:type
           rdf:resource="http://purl.org/dc/dcmitype/StillImage" />
        <dc:title></dc:title>
      </cc:Work>
    </rdf:RDF>
  </metadata>
  <defs
     id="defs4654" />
  <sodipodi:namedview
     pagecolor="#ffffff"
     bordercolor="#666666"
     borderopacity="1"
     objecttolerance="10"
     gridtolerance="10"
     guidetolerance="10"
     inkscape:pageopacity="0"
     inkscape:pageshadow="2"
     inkscape:window-width="2740"
     inkscape:window-height="1491"
     id="namedview4652"
     showgrid="false"
     showguides="true"
     inkscape:guide-bbox="true"
     inkscape:zoom="1.6239535"
     inkscape:cx="249.60927"
     inkscape:cy="735.69811"
     inkscape:window-x="140"
     inkscape:window-y="55"
     inkscape:window-maximized="1"
     inkscape:current-layer="svg4650" />
  <path
     d="m 580.78,24.62101 c -36.781,-5.4819 -259.34,77.046 -331.18,247.73 -14.354,12.932 15.858,-59.098 -3.6544,-35.968 -13.029,15.445 -28.559,60.125 -41.699,75.361 -13.14,15.236 22.001,-81.18 -11.539,-19.232 -9.0607,16.736 -21.631,46.973 -31.208,60.936 -9.577,13.963 15.644,-83.057 -25.664,21.949 -5.0652,12.876 -12.35,22.758 -16.014,31.871 -3.664,9.113 -5.5562,16.566 -5.3831,21.912 0.1731,5.346 2.4117,8.5855 7.0094,9.2708 4.5977,0.6853 11.554,-1.1836 20.433,-5.1808 8.879,-3.9972 53.888,-12.76 29.618,-14.824 -21.942,-1.8656 31.147,-17.599 47.123,-26.603 28.886,-16.279 -27.948,-0.22278 -11.475,-13.158 16.473,-12.93522 87.581,-45.658 107.09,-56.567 54.776,-30.627 -60.973,11.099 -41.175,0.28893 29.67,-16.2 130.21,-78.519 146.4,-92.73 16.19,-14.211 33.253,-31.121 47.607,-44.053 114.83,-103.46 150.48,-155.52 113.7,-161 z"
     id="path4644"
     inkscape:connector-curvature="0"
     style="display:inline;fill:none;stroke:#000000;stroke-width:10.76000023;stroke-linecap:round" />
  <path
     d="m 476.32,106.10001 c -24.494,9.0294 -102.57,71.151 -217.4,174.61 C 144.09,384.16901 58.22,471.82 16.99,519.93 71.089,492.312 222.52,339.68001 337.35,236.22001 c 114.83,-103.46 126.18,-112.57 138.97,-130.12 z"
     id="path4646"
     inkscape:connector-curvature="0"
     style="display:inline;fill:#72a7cf;fill-opacity:0;stroke:#000000;stroke-width:10.76000023;stroke-linecap:round" />
  <path
     d="m 32.845,510.33 c 0,0 154.83,-67.90199 214.02,-40.262 13.54,6.3215 11.06,36.648 24.369,43.441 49.024,25.02 182.24,-21.191 182.24,-21.191"
     id="path4648"
     inkscape:connector-curvature="0"
     style="display:inline;fill:none;stroke:#000000;stroke-width:10.76000023" />
  <text
     xml:space="preserve"
     style="font-style:normal;font-variant:normal;font-weight:normal;font-stretch:normal;font-size:170.66667175px;line-height:1.25;font-family:Purisa;-inkscape-font-specification:Purisa;text-align:center;letter-spacing:0px;word-spacing:0px;text-anchor:middle;display:inline;fill:#000000;fill-opacity:1;stroke:none"
     x="306.68369"
     y="737.62567"
     id="text4662"><tspan
       sodipodi:role="line"
       id="tspan4660"
       x="330.017"
       y="737.62567"
       style="font-style:normal;font-variant:normal;font-weight:normal;font-stretch:normal;font-family:Chilanka;-inkscape-font-specification:Chilanka">OI App </tspan><tspan
       sodipodi:role="line"
       x="306.68369"
       y="973.71454"
       id="tspan4664"
       style="font-style:normal;font-variant:normal;font-weight:normal;font-stretch:normal;font-family:Chilanka;-inkscape-font-specification:Chilanka">Center</tspan></text>
</svg>
